<svg width="40" height="40" viewBox="0 0 40 40" fill="none" xmlns="http://www.w3.org/2000/svg">
<path d="M0 20C0 8.95431 8.95431 0 20 0C31.0457 0 40 8.95431 40 20C40 31.0457 31.0457 40 20 40C8.95431 40 0 31.0457 0 20Z" fill="#F0F2F5"/>
<path fill-rule="evenodd" clip-rule="evenodd" d="M11.5 12C11.5 10.6193 12.6193 9.5 14 9.5H26C27.3807 9.5 28.5 10.6193 28.5 12V28C28.5 29.3807 27.3807 30.5 26 30.5H14C12.6193 30.5 11.5 29.3807 11.5 28V12ZM14.5 13.5C14.5 12.9477 14.9477 12.5 15.5 12.5H24.5C25.0523 12.5 25.5 12.9477 25.5 13.5C25.5 14.0523 25.0523 14.5 24.5 14.5H15.5C14.9477 14.5 14.5 14.0523 14.5 13.5ZM15.5 16.5C14.9477 16.5 14.5 16.9477 14.5 17.5C14.5 18.0523 14.9477 18.5 15.5 18.5H22.25C22.8023 18.5 23.25 18.0523 23.25 17.5C23.25 16.9477 22.8023 16.5 22.25 16.5H15.5Z" fill="#0D69F2"/>
</svg>
